# SSTK version 0.8.0
# 3
mtllib original-3.mtl
o mesh3/mesh3-geometry#mesh3-geometry
v -0.044258 0.346436 0.959367
v -0.032667 0.344195 0.895288
v -0.038644 0.339467 0.880775
v -0.036289 0.341682 0.950133
v 0.002104 0.338830 0.849742
v -0.052226 0.340868 0.949046
v -0.026691 0.343643 1.004542
v -0.026691 0.339721 0.895723
v 0.002104 0.343177 0.866163
v 0.002104 0.325791 0.827528
v -0.041360 0.325791 0.856502
v -0.032667 0.348678 1.023450
v -0.023975 0.325791 0.962750
v -0.032667 0.325791 0.920251
v 0.042852 0.339467 0.880775
v 0.045569 0.325791 0.856502
v -0.055848 0.325791 0.920251
v -0.038644 0.342268 1.017316
v 0.002104 0.325791 0.982066
v 0.002104 0.344535 1.029273
v -0.023975 0.325791 0.877752
v 0.002104 0.338830 0.870992
v 0.036876 0.344195 0.895288
v 0.056706 0.233361 0.783852
v 0.002104 0.239586 0.766193
v -0.052498 0.233361 0.783852
v 0.002104 0.349696 1.052575
v 0.060057 0.325791 0.920251
v 0.056435 0.340868 0.949046
v 0.074907 0.219665 0.822698
v -0.070699 0.219665 0.822698
v -0.041360 0.325791 0.984000
v 0.002104 0.342905 1.048352
v 0.028183 0.325791 0.962750
v 0.030899 0.343643 1.004542
v 0.002104 0.325791 0.858435
v 0.030899 0.339721 0.895723
v 0.048466 0.346436 0.959367
v 0.081209 0.123138 0.745428
v 0.107578 0.085288 0.777301
v 0.002104 0.140343 0.730938
v -0.077001 0.123138 0.745428
v 0.036876 0.348678 1.023450
v 0.045569 0.325791 0.984000
v 0.056706 0.205969 0.861543
v 0.042852 0.342268 1.017316
v 0.081209 0.047437 0.809174
v -0.103369 0.085288 0.777301
v -0.052498 0.205969 0.861543
v 0.002104 0.325791 1.012974
v 0.036876 0.325791 0.920251
v 0.040498 0.341682 0.950133
v 0.028183 0.325791 0.877752
v 0.105713 0.028942 0.678027
v 0.140249 -0.036050 0.702928
v 0.105713 -0.101043 0.727830
v 0.002104 0.058485 0.666708
v -0.101504 0.028942 0.678027
v 0.002104 0.199744 0.879201
v 0.002104 0.030233 0.823664
v 0.002104 -0.130586 0.739149
v -0.136040 -0.036050 0.702928
v -0.077001 0.047437 0.809174
v 0.116850 -0.015405 0.518447
v 0.155099 -0.103058 0.518447
v 0.116850 -0.190711 0.518447
v 0.002104 -0.230554 0.518447
v 0.002104 0.024438 0.518447
v -0.112642 -0.015405 0.518447
v -0.101504 -0.101043 0.727830
v -0.112642 -0.190711 0.518447
v -0.150890 -0.103058 0.518447
vn -0.4378371179820138 0.8922502404306896 -0.11040002974900323
vn 0.4378371179820138 -0.8922502404306896 0.11040002974900323
vn 0.5737691302129024 0.8155521850838806 0.07525701707905516
vn -0.5737691302129024 -0.8155521850838806 -0.07525701707905516
vn -0.1691150179378618 0.9555091013499003 -0.24166602563327502
vn 0.1691150179378618 -0.9555091013499003 0.24166602563327502
vn -0.4684802034738798 0.8764493806661512 -0.11118804829203754
vn 0.4684802034738798 -0.8764493806661512 0.11118804829203754
vn 0.4160330118596452 0.9031570257458461 -0.10594300302006425
vn -0.4160330118596452 -0.9031570257458461 0.10594300302006425
vn 0.5939910943011427 0.8008811271466966 0.07592101205310696
vn -0.5939910943011427 -0.8008811271466966 -0.07592101205310696
vn -0.18287294901603474 0.9504057350321453 -0.2515679298642546
vn 0.18287294901603474 -0.9504057350321453 0.2515679298642546
vn -0.3486861187170088 0.8082872751972113 -0.47443616153107027
vn 0.3486861187170088 -0.8082872751972113 0.47443616153107027
vn -0.8536531345502566 0.48879907704305015 -0.179866028349946
vn 0.8536531345502566 -0.48879907704305015 0.179866028349946
vn -0.646534963061519 0.7575039567215276 0.09044499483260625
vn 0.646534963061519 -0.7575039567215276 -0.09044499483260625
vn 0.8390644681943281 0.5178682889682554 -0.16668309300844175
vn -0.8390644681943281 -0.5178682889682554 0.16668309300844175
vn 0.41948903352514544 0.9013850720377965 -0.10739600858298197
vn -0.41948903352514544 -0.9013850720377965 0.10739600858298197
vn 0.9782564031581337 -0.10891504488596862 0.17649907273863633
vn -0.9782564031581337 0.10891504488596862 -0.17649907273863633
vn 0.4766860000438552 0.6897620000634582 0.5449760000501379
vn -0.4766860000438552 -0.6897620000634582 -0.5449760000501379
vn 0.17693201236082468 0.951456066470626 -0.2518460175944671
vn -0.17693201236082468 -0.951456066470626 0.2518460175944671
vn 0.31973495326354595 0.8171418805563373 -0.4796339298907145
vn -0.31973495326354595 -0.8171418805563373 0.4796339298907145
vn -0.29570698645218474 0.8460409612386344 -0.44358997967692554
vn 0.29570698645218474 -0.8460409612386344 0.44358997967692554
vn -0.8147829965102845 0.5493989976469241 -0.18517399920689978
vn 0.8147829965102845 -0.5493989976469241 0.18517399920689978
vn -0.7889511416447504 0.5971721072136026 0.1447120259809483
vn 0.7889511416447504 -0.5971721072136026 -0.1447120259809483
vn 0.26922795160008783 0.8918508396693133 -0.36348093465594783
vn -0.26922795160008783 -0.8918508396693133 0.36348093465594783
vn 0.8400631630554356 0.5145570998750282 -0.17182803335165267
vn -0.8400631630554356 -0.5145570998750282 0.17182803335165267
vn 0.15023206014053475 0.9661453867649832 -0.20974608396504474
vn -0.15023206014053475 -0.9661453867649832 0.20974608396504474
vn 0.9774931235263026 -0.06731700850688457 0.1999390252663962
vn -0.9774931235263026 0.06731700850688457 -0.1999390252663962
vn 0.5129627731981765 0.6380327178996383 0.5742677460927406
vn -0.5129627731981765 -0.6380327178996383 -0.5742677460927406
vn 0.32012995828194707 0.840253890501481 -0.43759594297425075
vn -0.32012995828194707 -0.840253890501481 0.43759594297425075
vn 0.17301698963342785 0.9552379427654875 -0.23996998562183877
vn -0.17301698963342785 -0.9552379427654875 0.23996998562183877
vn 0.4499559278045771 0.5847579061756014 -0.674979891699485
vn -0.4499559278045771 -0.5847579061756014 0.674979891699485
vn -0.4773027525095182 0.5094347358484786 -0.7160016287396478
vn 0.4773027525095182 -0.5094347358484786 0.7160016287396478
vn -0.9361212268844529 0.28002506786870385 -0.212751051563734
vn 0.9361212268844529 -0.28002506786870385 0.212751051563734
vn -0.9704027353551984 -0.14113196151099067 0.1959599465584965
vn 0.9704027353551984 0.14113196151099067 -0.1959599465584965
vn -0.6336288909657836 -0.13768897630662072 0.7612858689987003
vn 0.6336288909657836 0.13768897630662072 -0.7612858689987003
vn 0.2769090757561031 0.8930702443239583 -0.35460809701280993
vn -0.2769090757561031 -0.8930702443239583 0.35460809701280993
vn 0.15079194376600027 0.9651726400635429 -0.2137839202747533
vn -0.15079194376600027 -0.9651726400635429 0.2137839202747533
vn 0.47933798261824634 -0.657073976173184 0.5817979789028421
vn -0.47933798261824634 0.657073976173184 -0.5817979789028421
vn -0.5030940110778787 0.6423590141444244 0.5781620127308384
vn 0.5030940110778787 -0.6423590141444244 -0.5781620127308384
vn 0.8409434115775685 0.5062482477698499 -0.19112009353868797
vn -0.8409434115775685 -0.5062482477698499 0.19112009353868797
vn 0.4445600538762362 0.8893721077830123 -0.1066940129302482
vn -0.4445600538762362 -0.8893721077830123 0.1066940129302482
vn 0.31303909640776106 0.5505961695690555 -0.7738542383266351
vn -0.31303909640776106 -0.5505961695690555 0.7738542383266351
vn 0.8916658228612393 0.3412489322073232 -0.29745794090686256
vn -0.8916658228612393 -0.3412489322073232 0.29745794090686256
vn -0.3058209003400187 0.6108628009338954 -0.7302877620160538
vn 0.3058209003400187 -0.6108628009338954 0.7302877620160538
vn -0.8818377319019698 0.3800258844637881 -0.2791819151225687
vn 0.8818377319019698 -0.3800258844637881 0.2791819151225687
vn -0.937212471894979 -0.276159844388114 0.21299887997835992
vn 0.937212471894979 0.276159844388114 -0.21299887997835992
vn -0.5381738777721154 -0.4450838989143367 0.7157298374463207
vn 0.5381738777721154 0.4450838989143367 -0.7157298374463207
vn -0.26367107393113826 0.8965242513778149 -0.3559800998138082
vn 0.26367107393113826 -0.8965242513778149 0.3559800998138082
vn -0.153661984937592 0.964740905433207 -0.21368897905356626
vn 0.153661984937592 -0.964740905433207 0.21368897905356626
vn 0.4707222498128349 -0.6119953247866169 0.6355173372697759
vn -0.4707222498128349 0.6119953247866169 -0.6355173372697759
vn -0.48099704233688056 0.6945530611338686 0.5350120470912275
vn 0.48099704233688056 -0.6945530611338686 -0.5350120470912275
vn 0.8271236078239835 0.5339117468487419 -0.17551291678153558
vn -0.8271236078239835 -0.5339117468487419 0.17551291678153558
vn 0.9231832651728913 0.32204409250315336 -0.20981006026532587
vn -0.9231832651728913 -0.32204409250315336 0.20981006026532587
vn 0.4648477606290315 0.8779185479203497 -0.11478494089208383
vn -0.4648477606290315 -0.8779185479203497 0.11478494089208383
vn 0.3236890739330206 0.37480808560898754 -0.8687601984313676
vn -0.3236890739330206 -0.37480808560898754 0.8687601984313676
vn 0.8959809631760792 0.32137898679164534 -0.3064859874037327
vn -0.8959809631760792 -0.32137898679164534 0.3064859874037327
vn -0.3243658770591929 0.3166488799840809 -0.8913586621581953
vn 0.3243658770591929 -0.3166488799840809 0.8913586621581953
vn -0.8985117340747094 0.3085719086744543 -0.3121859076048481
vn 0.8985117340747094 -0.3085719086744543 0.3121859076048481
vn -0.9729355546731501 -0.0671090382590414 0.2211171260594623
vn 0.9729355546731501 0.0671090382590414 -0.2211171260594623
vn -0.32251013311463367 -0.8377553457798205 0.4406281818673368
vn 0.32251013311463367 0.8377553457798205 -0.4406281818673368
vn 0.5711598257206012 -0.433468867734581 0.6970517873068781
vn -0.5711598257206012 0.433468867734581 -0.6970517873068781
vn -0.2827199364151626 0.8885918001521723 -0.3612119187620037
vn 0.2827199364151626 -0.8885918001521723 0.3612119187620037
vn -0.14800591694531898 0.966325457738891 -0.21049788187746277
vn 0.14800591694531898 -0.966325457738891 0.21049788187746277
vn -0.5127068720094106 -0.595543851330238 0.618432845616299
vn 0.5127068720094106 0.595543851330238 -0.618432845616299
vn -0.5936680044082817 0.8007860059462364 0.07937300058938421
vn 0.5936680044082817 -0.8007860059462364 -0.07937300058938421
vn 0.9581709243116864 -0.18570998533030456 0.21776198279843728
vn -0.9581709243116864 0.18570998533030456 -0.21776198279843728
vn 0.9124108995339852 -0.20036797793738298 0.35687396070443195
vn -0.9124108995339852 0.20036797793738298 -0.35687396070443195
vn 0.6666311006659702 0.7360641111508417 0.11752701774740372
vn -0.6666311006659702 -0.7360641111508417 -0.11752701774740372
vn 0.23833908077002977 0.3251011101725586 -0.9151523101332735
vn -0.23833908077002977 -0.3251011101725586 0.9151523101332735
vn 0.8807383211040394 0.31810511597637486 -0.3508691279216443
vn -0.8807383211040394 -0.31810511597637486 0.3508691279216443
vn 0.7820509169985944 -0.02029699784581884 0.6228839338914629
vn -0.7820509169985944 0.02029699784581884 -0.6228839338914629
vn -0.2442571020122902 0.3671721533469117 -0.8975093748385862
vn 0.2442571020122902 -0.3671721533469117 0.8975093748385862
vn -0.8815267895117028 0.3287919214920607 -0.3388309190949793
vn 0.8815267895117028 -0.3287919214920607 0.3388309190949793
vn -0.9067338061965503 -0.2572319450197644 0.3341639285764778
vn 0.9067338061965503 0.2572319450197644 -0.3341639285764778
vn -0.27878987510773967 -0.8645076127179663 0.41821381264861807
vn 0.27878987510773967 0.8645076127179663 -0.41821381264861807
vn 0.5922539509862494 -0.1957259838021097 0.7816179353148656
vn -0.5922539509862494 0.1957259838021097 -0.7816179353148656
vn -0.8333401632771875 0.5258231030250565 -0.17045303339703655
vn 0.8333401632771875 -0.5258231030250565 0.17045303339703655
vn -0.42103185280644795 0.9007436850982612 -0.10673796268420128
vn 0.42103185280644795 -0.9007436850982612 0.10673796268420128
vn -0.43789996681900706 -0.6772889486797864 0.5912049552026286
vn 0.43789996681900706 0.6772889486797864 -0.5912049552026286
vn -0.5705809267120229 0.8181518949128957 0.07116799085886359
vn 0.5705809267120229 -0.8181518949128957 -0.07116799085886359
vn 0.9521752450090046 -0.23583706068442103 0.19427604999014822
vn -0.9521752450090046 0.23583706068442103 -0.19427604999014822
vn 0.9662581876666833 -0.1346140261447387 0.2196000426507244
vn -0.9662581876666833 0.1346140261447387 -0.2196000426507244
vn 0.9055488650705125 -0.00017899997332846893 0.42424193678668337
vn -0.9055488650705125 0.00017899997332846893 -0.42424193678668337
vn 0.7806811395221747 0.6133491096168427 0.1197490214013674
vn -0.7806811395221747 -0.6133491096168427 -0.1197490214013674
vn 0.2689128991712618 0.605766772868094 -0.7488207192300983
vn -0.2689128991712618 -0.605766772868094 0.7488207192300983
vn 0.8810826366442389 0.39586783674532544 -0.2588088932680109
vn -0.8810826366442389 -0.39586783674532544 0.2588088932680109
vn 0.8407160104643924 -0.14679300182713254 0.5211990064873641
vn -0.8407160104643924 0.14679300182713254 -0.5211990064873641
vn -0.2681699143197261 0.594693809995358 -0.75790775784851
vn 0.2681699143197261 -0.594693809995358 0.75790775784851
vn -0.8801967508013716 0.4054708852043156 -0.246671930162993
vn 0.8801967508013716 -0.4054708852043156 0.246671930162993
vn -0.8940502297508224 0.06776801741485793 0.4428111137925076
vn 0.8940502297508224 -0.06776801741485793 -0.4428111137925076
vn -0.43337900458818357 -0.6241290066076539 0.6501120068827358
vn 0.43337900458818357 0.6241290066076539 -0.6501120068827358
vn 0.30271110576818694 -0.8579632997750032 0.4150481450190923
vn -0.30271110576818694 0.8579632997750032 -0.4150481450190923
vn -0.8452787959180253 0.5074248774886209 -0.1674029595826528
vn 0.8452787959180253 -0.5074248774886209 0.1674029595826528
vn -0.41529401840811536 0.9034070400439695 -0.10670800472988576
vn 0.41529401840811536 -0.9034070400439695 0.10670800472988576
vn -0.9840293950357278 -0.03361601349505047 0.17480307017418217
vn 0.9840293950357278 0.03361601349505047 -0.17480307017418217
vn 0.29517681657674044 -0.8466424738952603 0.4427947248467793
vn -0.29517681657674044 0.8466424738952603 -0.4427947248467793
vn 0.2966758950211048 -0.6689497632918338 0.6815347588386275
vn -0.2966758950211048 0.6689497632918338 -0.6815347588386275
vn 0.23044907306365972 -0.2729250865306394 0.93402629613215
vn -0.23044907306365972 0.2729250865306394 -0.93402629613215
vn 0.25341203728895056 0.5971550878698848 -0.7610441119857468
vn -0.25341203728895056 -0.5971550878698848 0.7610441119857468
vn 0.8938063323114463 0.3904041451497505 -0.22066908204334562
vn -0.8938063323114463 -0.3904041451497505 0.22066908204334562
vn 0.7678720567388363 -0.17155301267622414 0.6172050456058997
vn -0.7678720567388363 0.17155301267622414 -0.6172050456058997
vn 0.22063997971303737 -0.4403639595102972 0.8702859199806945
vn -0.22063997971303737 0.4403639595102972 -0.8702859199806945
vn -0.25504204590986773 0.6056731090266205 -0.7537331356787602
vn 0.25504204590986773 -0.6056731090266205 0.7537331356787602
vn -0.8927756142835214 0.3843878339283473 -0.2349418984952542
vn 0.8927756142835214 -0.3843878339283473 0.2349418984952542
vn -0.8072938487627955 -0.0688399871036213 0.586120890197002
vn 0.8072938487627955 0.0688399871036213 -0.586120890197002
vn -0.2915209268920995 -0.6961998254063334 0.6559888354904844
vn 0.2915209268920995 0.6961998254063334 -0.6559888354904844
vn -0.9683717818892905 -0.15173396582427992 0.19807295538714195
vn 0.9683717818892905 0.15173396582427992 -0.19807295538714195
vn 0.41576785579136005 -0.6619247704120952 0.6236927836728193
vn -0.41576785579136005 0.6619247704120952 -0.6236927836728193
vn 0.3242940073684464 -0.2945200066919364 0.8989390204252431
vn -0.3242940073684464 0.2945200066919364 -0.8989390204252431
vn 0.25464400180071506 -0.4498640031812133 0.8560250060533808
vn -0.25464400180071506 0.4498640031812133 -0.8560250060533808
vn 0.29026198011502324 0.9270409364912088 -0.2373669837387006
vn -0.29026198011502324 -0.9270409364912088 0.2373669837387006
vn 0.8932360326772544 0.44084701612750665 -0.08822300322746218
vn -0.8932360326772544 -0.44084701612750665 0.08822300322746218
vn 0.8941170236757721 -0.39249401039304527 0.21564600571019849
vn -0.8941170236757721 0.39249401039304527 -0.21564600571019849
vn 0.2915641284908819 -0.8713333839923504 0.3946751739314141
vn -0.2915641284908819 0.8713333839923504 -0.3946751739314141
vn -0.28941296318522636 0.9329208813278069 -0.21423997274760603
vn 0.28941296318522636 -0.9329208813278069 0.21423997274760603
vn -0.8910869725647692 0.44947798616124723 -0.06271799806900695
vn 0.8910869725647692 -0.44947798616124723 0.06271799806900695
vn -0.827709532523859 -0.11392493565715123 0.5494706896683832
vn 0.827709532523859 0.11392493565715123 -0.5494706896683832
vn -0.32365296522203435 -0.25130597299604374 0.9121919019808805
vn 0.32365296522203435 0.25130597299604374 -0.9121919019808805
vn -0.23501392176000077 -0.30262589925086164 0.9236806924915081
vn 0.23501392176000077 0.30262589925086164 -0.9236806924915081
vn -0.22354699464001376 -0.45342698912818125 0.8628039793125493
vn 0.22354699464001376 0.45342698912818125 -0.8628039793125493
vn 0.9155217433728826 0.39949888801768085 -0.04712298679109879
vn -0.9155217433728826 -0.39949888801768085 0.04712298679109879
vn 0.320555113205661 0.9231993260325155 -0.2120080748717249
vn -0.320555113205661 -0.9231993260325155 0.2120080748717249
vn 0.8953119580183755 -0.3906809816807738 0.21397398996665284
vn -0.8953119580183755 0.3906809816807738 -0.21397398996665284
vn 0.3022041335257527 -0.8703483845543799 0.38880117178775325
vn -0.3022041335257527 0.8703483845543799 -0.38880117178775325
vn -0.3015639064613744 -0.8685047306085473 0.39339387797769604
vn 0.3015639064613744 0.8685047306085473 -0.39339387797769604
vn -0.31898017004039947 0.9186654897177364 -0.23303512422523195
vn 0.31898017004039947 -0.9186654897177364 0.23303512422523195
vn -0.9142065060662428 0.39892578446564286 -0.0713069614737861
vn 0.9142065060662428 -0.39892578446564286 0.0713069614737861
vn -0.7858029909306548 -0.1923449977800502 0.5878069932158255
vn 0.7858029909306548 0.1923449977800502 -0.5878069932158255
vn -0.2526059443572317 -0.4324849047343981 0.8655328093447814
vn 0.2526059443572317 0.4324849047343981 -0.8655328093447814
vn -0.2916510208212587 -0.8735760623654708 0.3896210278154357
vn 0.2916510208212587 0.8735760623654708 -0.3896210278154357
vn -0.8941733988760397 -0.39289173587154735 0.21468585567361773
vn 0.8941733988760397 0.39289173587154735 -0.21468585567361773
vn -0.8951277494063363 -0.39060089065012416 0.21488893984120505
vn 0.8951277494063363 0.39060089065012416 -0.21488893984120505
usemtl material_0_0
f 1//1 2//1 3//1
f 3//2 2//2 1//2
f 1//3 4//3 2//3
f 2//4 4//4 1//4
f 2//5 5//5 3//5
f 3//6 5//6 2//6
f 1//7 3//7 6//7
f 6//8 3//8 1//8
f 7//9 4//9 1//9
f 1//10 4//10 7//10
f 4//11 8//11 2//11
f 2//12 8//12 4//12
f 2//13 9//13 5//13
f 5//14 9//14 2//14
f 3//15 5//15 10//15
f 10//16 5//16 3//16
f 6//17 3//17 11//17
f 11//18 3//18 6//18
f 12//19 1//19 6//19
f 6//20 1//20 12//20
f 7//21 13//21 4//21
f 4//22 13//22 7//22
f 12//23 7//23 1//23
f 1//24 7//24 12//24
f 4//25 14//25 8//25
f 8//26 14//26 4//26
f 8//27 9//27 2//27
f 2//28 9//28 8//28
f 15//29 5//29 9//29
f 9//30 5//30 15//30
f 16//31 10//31 5//31
f 5//32 10//32 16//32
f 3//33 10//33 11//33
f 11//34 10//34 3//34
f 6//35 11//35 17//35
f 17//36 11//36 6//36
f 12//37 6//37 18//37
f 18//38 6//38 12//38
f 7//39 19//39 13//39
f 13//40 19//40 7//40
f 4//41 13//41 14//41
f 14//42 13//42 4//42
f 20//43 7//43 12//43
f 12//44 7//44 20//44
f 8//45 14//45 21//45
f 21//46 14//46 8//46
f 8//47 22//47 9//47
f 9//48 22//48 8//48
f 15//49 16//49 5//49
f 5//50 16//50 15//50
f 23//51 15//51 9//51
f 9//52 15//52 23//52
f 24//53 10//53 16//53
f 16//54 10//54 24//54
f 25//55 11//55 10//55
f 10//56 11//56 25//56
f 11//57 26//57 17//57
f 17//58 26//58 11//58
f 18//59 6//59 17//59
f 17//60 6//60 18//60
f 27//61 12//61 18//61
f 18//62 12//62 27//62
f 20//63 19//63 7//63
f 7//64 19//64 20//64
f 27//65 20//65 12//65
f 12//66 20//66 27//66
f 8//67 21//67 22//67
f 22//68 21//68 8//68
f 23//69 9//69 22//69
f 22//70 9//70 23//70
f 15//71 28//71 16//71
f 16//72 28//72 15//72
f 29//73 15//73 23//73
f 23//74 15//74 29//74
f 24//75 25//75 10//75
f 10//76 25//76 24//76
f 16//77 30//77 24//77
f 24//78 30//78 16//78
f 25//79 26//79 11//79
f 11//80 26//80 25//80
f 17//81 26//81 31//81
f 31//82 26//82 17//82
f 18//83 17//83 32//83
f 32//84 17//84 18//84
f 27//85 18//85 33//85
f 33//86 18//86 27//86
f 20//87 34//87 19//87
f 19//88 34//88 20//88
f 27//89 35//89 20//89
f 20//90 35//90 27//90
f 22//91 21//91 36//91
f 36//92 21//92 22//92
f 37//93 23//93 22//93
f 22//94 23//94 37//94
f 29//95 28//95 15//95
f 15//96 28//96 29//96
f 28//97 30//97 16//97
f 16//98 30//98 28//98
f 38//99 29//99 23//99
f 23//100 29//100 38//100
f 39//101 25//101 24//101
f 24//102 25//102 39//102
f 24//103 30//103 40//103
f 40//104 30//104 24//104
f 41//105 26//105 25//105
f 25//106 26//106 41//106
f 26//107 42//107 31//107
f 31//108 42//108 26//108
f 17//109 31//109 32//109
f 32//110 31//110 17//110
f 33//111 18//111 32//111
f 32//112 18//112 33//112
f 43//113 27//113 33//113
f 33//114 27//114 43//114
f 20//115 35//115 34//115
f 34//116 35//116 20//116
f 27//117 43//117 35//117
f 35//118 43//118 27//118
f 37//119 22//119 36//119
f 36//120 22//120 37//120
f 38//121 23//121 37//121
f 37//122 23//122 38//122
f 29//123 44//123 28//123
f 28//124 44//124 29//124
f 28//125 45//125 30//125
f 30//126 45//126 28//126
f 46//127 29//127 38//127
f 38//128 29//128 46//128
f 39//129 41//129 25//129
f 25//130 41//130 39//130
f 24//131 40//131 39//131
f 39//132 40//132 24//132
f 30//133 47//133 40//133
f 40//134 47//134 30//134
f 41//135 42//135 26//135
f 26//136 42//136 41//136
f 31//137 42//137 48//137
f 48//138 42//138 31//138
f 32//139 31//139 49//139
f 49//140 31//140 32//140
f 33//141 32//141 50//141
f 50//142 32//142 33//142
f 46//143 43//143 33//143
f 33//144 43//144 46//144
f 35//145 51//145 34//145
f 34//146 51//146 35//146
f 43//147 52//147 35//147
f 35//148 52//148 43//148
f 37//149 36//149 53//149
f 53//150 36//150 37//150
f 38//151 37//151 52//151
f 52//152 37//152 38//152
f 46//153 44//153 29//153
f 29//154 44//154 46//154
f 44//155 45//155 28//155
f 28//156 45//156 44//156
f 30//157 45//157 47//157
f 47//158 45//158 30//158
f 43//159 46//159 38//159
f 38//160 46//160 43//160
f 54//161 41//161 39//161
f 39//162 41//162 54//162
f 39//163 40//163 55//163
f 55//164 40//164 39//164
f 40//165 47//165 56//165
f 56//166 47//166 40//166
f 57//167 42//167 41//167
f 41//168 42//168 57//168
f 42//169 58//169 48//169
f 48//170 58//170 42//170
f 31//171 48//171 49//171
f 49//172 48//172 31//172
f 50//173 32//173 49//173
f 49//174 32//174 50//174
f 33//175 50//175 46//175
f 46//176 50//176 33//176
f 35//177 52//177 51//177
f 51//178 52//178 35//178
f 43//179 38//179 52//179
f 52//180 38//180 43//180
f 52//181 37//181 53//181
f 53//182 37//182 52//182
f 46//183 50//183 44//183
f 44//184 50//184 46//184
f 45//185 44//185 59//185
f 59//186 44//186 45//186
f 47//187 45//187 60//187
f 60//188 45//188 47//188
f 54//189 57//189 41//189
f 41//190 57//190 54//190
f 39//191 55//191 54//191
f 54//192 55//192 39//192
f 40//193 56//193 55//193
f 55//194 56//194 40//194
f 56//195 47//195 61//195
f 61//196 47//196 56//196
f 57//197 58//197 42//197
f 42//198 58//198 57//198
f 48//199 58//199 62//199
f 62//200 58//200 48//200
f 49//201 48//201 63//201
f 63//202 48//202 49//202
f 50//203 49//203 59//203
f 59//204 49//204 50//204
f 52//205 53//205 51//205
f 51//206 53//206 52//206
f 50//207 59//207 44//207
f 44//208 59//208 50//208
f 45//209 59//209 60//209
f 60//210 59//210 45//210
f 47//211 60//211 61//211
f 61//212 60//212 47//212
f 54//213 64//213 57//213
f 57//214 64//214 54//214
f 54//215 55//215 65//215
f 65//216 55//216 54//216
f 55//217 56//217 66//217
f 66//218 56//218 55//218
f 61//219 67//219 56//219
f 56//220 67//220 61//220
f 58//221 57//221 68//221
f 68//222 57//222 58//222
f 58//223 69//223 62//223
f 62//224 69//224 58//224
f 48//225 62//225 63//225
f 63//226 62//226 48//226
f 59//227 49//227 63//227
f 63//228 49//228 59//228
f 59//229 63//229 60//229
f 60//230 63//230 59//230
f 60//231 70//231 61//231
f 61//232 70//232 60//232
f 54//233 65//233 64//233
f 64//234 65//234 54//234
f 57//235 64//235 68//235
f 68//236 64//236 57//236
f 55//237 66//237 65//237
f 65//238 66//238 55//238
f 56//239 67//239 66//239
f 66//240 67//240 56//240
f 61//241 71//241 67//241
f 67//242 71//242 61//242
f 58//243 68//243 69//243
f 69//244 68//244 58//244
f 69//245 72//245 62//245
f 62//246 72//246 69//246
f 63//247 62//247 70//247
f 70//248 62//248 63//248
f 60//249 63//249 70//249
f 70//250 63//250 60//250
f 61//251 70//251 71//251
f 71//252 70//252 61//252
f 62//253 72//253 70//253
f 70//254 72//254 62//254
f 70//255 72//255 71//255
f 71//256 72//256 70//256
